<?xml version="1.0" standalone="no"?><!DOCTYPE svg PUBLIC "-//W3C//DTD SVG 1.1//EN" "http://www.w3.org/Graphics/SVG/1.1/DTD/svg11.dtd"><svg t="1699950066148" class="icon" viewBox="0 0 1024 1024" version="1.1" xmlns="http://www.w3.org/2000/svg" p-id="2698" xmlns:xlink="http://www.w3.org/1999/xlink" width="200" height="200"><path d="M611.6552 190.793333A254.433333 254.433333 0 0 0 512.001867 170.666667a555.28 555.28 0 0 1 211.606666 41.806666l-31.9 31.893334a255.053333 255.053333 0 0 0-80.053333-53.573334z m-424.38 558l142.426667-142.42A255.92 255.92 0 0 1 512.001867 170.666667 558.333333 558.333333 0 0 0 1.8152 503.4a21.28 21.28 0 0 0 0 17.2 555.72 555.72 0 0 0 185.46 228.206667zM1022.188533 520.6A557.153333 557.153333 0 0 1 260.801867 793.373333l-139.046667 139.046667a21.333333 21.333333 0 0 1-30.173333-30.173333l810.666666-810.666667a21.333333 21.333333 0 1 1 30.173334 30.173333L802.001867 252.206667q7.333333 4.453333 14.493333 9.126666a556.1 556.1 0 0 1 205.726667 242.066667 21.28 21.28 0 0 1-0.033334 17.2zM768.001867 426.666667a254.433333 254.433333 0 0 0-20.126667-99.653334q-3.046667-7.22-6.526667-14.186666l-32.246666 32.246666A212.206667 212.206667 0 0 1 725.3352 426.666667c0 117.633333-95.7 213.333333-213.333333 213.333333a212.206667 212.206667 0 0 1-81.593334-16.233333L398.161867 656q6.98 3.46 14.186666 6.526667A255.933333 255.933333 0 0 0 768.001867 426.666667z m-469.333334 0a212.666667 212.666667 0 0 0 61.273334 149.466666L661.468533 274.606667A212.666667 212.666667 0 0 0 512.001867 213.333333c-117.633333 0-213.333333 95.7-213.333334 213.333334z" fill="#5C5C66" p-id="2699"></path></svg>