<?xml version="1.0" standalone="no"?><!DOCTYPE svg PUBLIC "-//W3C//DTD SVG 1.1//EN" "http://www.w3.org/Graphics/SVG/1.1/DTD/svg11.dtd"><svg t="1701047782163" class="icon" viewBox="0 0 1024 1024" version="1.1" xmlns="http://www.w3.org/2000/svg" p-id="2544" xmlns:xlink="http://www.w3.org/1999/xlink" width="200" height="200"><path d="M768 779.461V880c0 17.949-14.551 32.5-32.5 32.5h-63c-17.949 0-32.5-14.551-32.5-32.5V714.855a64.008 64.008 0 0 1 18.747-45.26l90.312-90.312A64.667 64.667 0 0 0 768 533.556V368.5c0-35.346 28.654-64 64-64h64c35.346 0 64 28.654 64 64v164.625a64.3 64.3 0 0 1-18.699 45.333l-154.36 155.277A64.663 64.663 0 0 0 768 779.461z m-0.483-569.139c-1.01-54.462 43.343-98.815 97.806-97.806 51.327 0.952 93.209 42.834 94.161 94.161 1.01 54.462-43.344 98.815-97.806 97.806-51.327-0.951-93.21-42.834-94.161-94.161zM670.834 560.5H352.166c-17.436 0-32.175-13.671-32.653-31.101-0.496-18.084 14.016-32.899 31.988-32.899h64v-128c0-35.346 28.654-64 64-64h64c35.346 0 64 28.654 64 64v128h64c17.972 0 32.484 14.816 31.988 32.899-0.479 17.43-15.218 31.101-32.655 31.101zM415.517 210.322c-1.01-54.462 43.343-98.815 97.806-97.806 51.327 0.952 93.209 42.834 94.161 94.161 1.01 54.462-43.344 98.815-97.806 97.806-51.327-0.951-93.21-42.834-94.161-94.161zM383.5 714.855V880c0 17.949-14.551 32.5-32.5 32.5h-63c-17.949 0-32.5-14.551-32.5-32.5V779.461a64.667 64.667 0 0 0-18.941-45.727L82.131 578.389A64.067 64.067 0 0 1 63.5 533.221V368.5c0-35.346 28.654-64 64-64h64c35.346 0 64 28.654 64 64v165.056a64.667 64.667 0 0 0 18.941 45.727l90.312 90.312a64.01 64.01 0 0 1 18.747 45.26zM63.517 210.322c-1.01-54.462 43.343-98.815 97.806-97.806 51.327 0.952 93.209 42.834 94.161 94.161 1.01 54.462-43.343 98.815-97.806 97.806-51.327-0.951-93.21-42.834-94.161-94.161z m400.882 414.19c17.43 0.478 31.101 15.217 31.101 32.653v222.668c0 17.436-13.671 32.175-31.101 32.653-18.084 0.496-32.899-14.016-32.899-31.988v-224c0-17.97 14.816-32.482 32.899-31.986z m96 0c17.43 0.478 31.101 15.217 31.101 32.653v222.668c0 17.436-13.671 32.175-31.101 32.653-18.084 0.496-32.899-14.016-32.899-31.988v-224c0-17.97 14.815-32.482 32.899-31.986z" fill="#0071BC" p-id="2545"></path></svg>