<?xml version="1.0" standalone="no"?><!DOCTYPE svg PUBLIC "-//W3C//DTD SVG 1.1//EN" "http://www.w3.org/Graphics/SVG/1.1/DTD/svg11.dtd"><svg t="1700379866013" class="icon" viewBox="0 0 2048 1024" version="1.1" xmlns="http://www.w3.org/2000/svg" p-id="2797" xmlns:xlink="http://www.w3.org/1999/xlink" width="400" height="200"><path d="M36.571429 36.571429v950.857142h1974.857142V36.571429H36.571429zM0 0h2048v1024H0V0z" fill="#3A79D9" p-id="2798"></path><path d="M403.163429 472.795429H266.24v256.877714c0 12.873143 7.021714 19.309714 21.650286 19.309714h119.369143c22.235429 0 35.693714-5.266286 40.96-15.798857 5.851429-12.873143 10.532571-36.278857 12.873142-70.217143l29.842286 10.532572c-3.510857 47.981714-11.117714 78.409143-21.650286 90.697142-9.362286 9.362286-28.086857 14.628571-55.003428 14.628572H277.357714c-28.672 0-42.715429-13.458286-42.715428-40.374857V444.123429h199.533714v150.966857c0 30.427429-15.213714 46.811429-45.641143 47.981714-22.235429 0-43.885714-1.170286-64.365714-2.340571l-8.192-29.257143c22.235429 1.170286 42.715429 2.340571 62.610286 2.340571 16.384 0 24.576-8.777143 24.576-26.331428V472.795429z m-76.068572-211.236572h24.576c50.322286 53.833143 99.474286 111.177143 147.456 172.032l-21.065143 21.650286a2220.178286 2220.178286 0 0 0-135.753143-163.84 1049.453714 1049.453714 0 0 1-154.477714 180.809143l-18.724571-25.161143a1043.529143 1043.529143 0 0 0 157.988571-185.490286z m212.406857 45.056H570.514286v366.884572h-31.012572V306.614857z m95.378286 476.306286H542.427429l-7.021715-29.842286c31.012571 1.170286 60.269714 1.755429 88.356572 1.755429 15.213714 0 22.820571-8.777143 22.820571-26.331429V256.877714h31.597714v479.817143c0 30.427429-14.628571 46.226286-43.300571 46.226286z m603.282286-292.571429h-125.220572v53.833143h141.019429v27.501714h-141.019429v57.929143h157.403429v27.501715h-157.403429v65.536h-31.597714v-65.536H945.005714v-27.501715h136.338286v-57.929143H962.56V544.182857h118.784v-53.833143h-106.496V462.262857h106.496v-54.418286h-135.168v-26.916571h135.168v-55.003429h-106.496V298.422857h106.496v-44.470857h31.597714v44.470857h125.220572v82.505143h42.715428v26.916571h-42.715428v82.505143z m-125.220572-164.425143v55.003429h94.793143v-55.003429h-94.793143z m0 81.92v54.418286h94.793143v-54.418286h-94.793143z m-19.309714 337.627429c62.610286 0 127.561143-1.170286 194.267429-2.340571l-5.851429 30.427428h-174.372571c-104.155429 0-178.468571-15.798857-222.939429-46.226286a174.226286 174.226286 0 0 1-23.990857-22.235428 334.262857 334.262857 0 0 1-72.557714 76.653714l-20.48-26.331428c29.257143-21.065143 53.833143-46.226286 72.557714-75.483429-23.405714-32.768-42.130286-75.483429-56.758857-127.561143l26.331428-9.947428c13.458286 45.641143 28.672 82.505143 45.641143 110.592 22.235429-45.056 35.108571-98.889143 38.619429-160.914286h-109.421715v-24.576c35.693714-46.226286 68.461714-95.963429 98.889143-148.626286h-102.985143v-30.427428h138.678858v26.331428a1370.697143 1370.697143 0 0 1-93.037715 148.041143h97.718857V482.742857c-2.340571 77.824-18.724571 143.945143-48.566857 198.363429 10.532571 12.288 22.235429 21.650286 33.938286 28.672 40.96 22.820571 102.4 34.523429 184.32 35.693714z m472.210286-229.961143H1445.302857a628.297143 628.297143 0 0 1-20.48 66.121143h156.233143v202.459429h-28.672v-36.278858h-102.4v37.449143h-29.257143V591.579429c-16.969143 41.545143-38.034286 76.653714-63.195428 104.740571l-16.969143-26.331429c33.938286-38.619429 59.099429-90.112 75.483428-154.477714h-49.737143v-28.086857h56.173715c4.681143-23.405714 8.192-47.981714 11.117714-73.728h-81.334857v-29.257143h84.260571c1.755429-24.576 2.925714-49.737143 3.510857-76.653714h-70.217142v-27.501714h196.022857v104.155428h34.523428v29.257143h-34.523428v101.814857z m-95.963429-207.725714a1537.462857 1537.462857 0 0 1-3.510857 76.653714h70.217143V307.785143h-66.706286z m-6.436571 105.910857c-2.925714 25.746286-7.021714 50.322286-11.702857 73.728h84.845714V413.696h-73.142857z m-13.458286 306.029714h102.4V610.889143h-102.4V719.725714z m278.528-319.488h-108.251429v-29.842285h135.753143c18.139429-36.278857 33.938286-75.483429 46.811429-117.613715l29.842286 10.532572a723.456 723.456 0 0 1-43.885715 107.081143h71.972572v29.842285h-101.229715v95.378286h88.356572v29.842286h-88.356572v94.208h114.102858v31.012571h-114.102858v137.508572h-31.012571v-137.508572h-112.932571v-31.012571h112.932571V525.458286h-94.208v-29.842286h94.208V400.237714z m-60.854857-143.36c18.724571 29.257143 36.278857 60.854857 52.662857 95.378286L1692.818286 365.714286a666.185143 666.185143 0 0 0-52.077715-95.963429l26.916572-12.873143z" fill="#3A79D9" p-id="2799"></path></svg>