<?xml version="1.0" standalone="no"?><!DOCTYPE svg PUBLIC "-//W3C//DTD SVG 1.1//EN" "http://www.w3.org/Graphics/SVG/1.1/DTD/svg11.dtd"><svg t="1700984852434" class="icon" viewBox="0 0 1024 1024" version="1.1" xmlns="http://www.w3.org/2000/svg" p-id="13207" xmlns:xlink="http://www.w3.org/1999/xlink" width="200" height="200"><path d="M962.3299722 496.77275021c-5.43896629-22.6758366-24.50915134-64.78507459-38.88933814-93.95903763-25.00890525-50.72568474-54.73299527-89.6932337-74.34800487-99.74663864-10.17270958-5.83664846-22.7142792-8.03450518-37.26944615-11.21596244-9.91686739-2.16869337-10.44445905-18.22975008-28.44753029-23.43806073 31.49642684-5.97186038 55.31626243-33.5908862 55.31626244-66.78276462 0-37.55180048-30.48366295-67.99569521-68.09379014-67.99569522-37.59952234 0-68.08848772 30.44389473-68.08848773 67.99569522 0 32.96917643 23.49506183 60.44768787 54.67334296 66.67008802-19.49040252 5.051889-18.82759892 21.18187729-30.01174679 24.25198355-20.01269175 5.50259545-36.84127503 9.02473375-48.29584676 24.37261379-4.63697395 4.69397506-9.50327794 10.30792151-14.49418901 16.70265059-22.48362355-36.11351668-45.244299-62.14181387-61.88862288-70.67342173-12.09749122-6.94618167-27.02382818-9.56027905-44.35083977-13.34886441-11.80453203-2.58095719-12.42756741-21.69621287-33.8507052-27.88812407 37.48949694-7.11055697 65.82700185-39.97898724 65.82700184-79.47677907 0-44.68886959-36.27921757-80.9190397-81.03569313-80.91903971-44.75117313 0-81.03039071 36.23017011-81.03039072 80.91903971 0 39.2326704 27.95970685 71.93407418 65.06875454 79.33891594-23.20210265 6.0116286-22.41734319 25.20774633-35.71848574 28.86377095-23.81453317 6.54584831-43.84843463 10.73874385-57.47169972 29.00428532-12.63303651 12.78680695-26.70435684 31.26709679-40.68288467 53.65527662-11.70246027-14.90777845-22.70765117-25.46623972-31.62633634-30.03693332-10.16608155-5.83664846-22.70632556-8.03450518-37.26546934-11.21596243-9.91819299-2.16869337-10.44180784-18.22975008-28.4488559-23.43806073 31.50040366-5.97186038 55.31758804-33.5908862 55.31758805-66.78276463 0-37.55180048-30.48631415-67.99569521-68.09246454-67.99569521s-68.08848772 30.44389473-68.08848771 67.99569521c0 32.96917643 23.49373623 60.44768787 54.67334295 66.67008803-19.49437934 5.051889-18.83422697 21.18187729-30.01042118 24.25198354-20.01401735 5.50259545-36.84260064 9.02473375-48.29584676 24.37261379-17.57092331 17.78567167-38.4585158 48.6723192-56.80491931 85.88741545-14.38151241 29.17396304-33.44904623 71.28320103-38.88536132 93.95903765-6.52198738 27.21736683 0.81789964 34.56520749 9.93144907 39.04443417 9.37336845 4.60648499 20.78817196 5.23482279 39.00731717-17.72601935 8.50111891-10.71885974 19.13513979-54.37773254 31.49775246-48.0267485 17.96727985 6.88785495 10.16210471 44.13874261 7.1556276 59.23343169-3.00382589 15.08806105-1.21027937 52.28725002-1.64375291 67.50522055-0.43214795 15.21797054-0.95046036 49.30861066-1.41044606 73.891996-1.02601997 54.95304607-6.81759778 149.18648439-1.08567229 187.6105344 3.56058092 30.67322477 15.47513835 36.32296261 28.49657778 36.28982243 15.08673542-0.03446578 24.95190414-2.44176845 30.30205475-37.73871109 5.73987914-37.88187667 7.9098981-118.14606642 10.6008807-137.11417972 2.68965699-18.96811328 7.36242234-78.66550749 7.47244773-101.63297766 0-10.83153634 10.14089501-21.4788133 27.08878294-21.47881329 17.75120588 0 27.35920679 11.1907759 27.35920679 20.9273607-0.5514526 22.7513962 2.31583577 93.75489413 2.13290197 103.48882773-1.02204315 54.94906925 2.57167794 96.86079178 8.30227784 135.2861674 3.56058092 30.68250402 13.50263484 38.29546611 26.52805108 38.26100033 15.08673542-0.03446578 26.17411396-1.21955861 31.52426459-36.5204781 5.73722791-37.88187667 3.09529279-132.8894696 4.08419574-185.97606073 0.48384662-25.91694617-1.3083743-86.43224001-1.30837428-86.43224002s-1.32030477-71.68751123 18.58368719-71.68751123c23.29356955 0 22.23175819 69.78261371 22.23175819 69.78261371s0.28235434 10.64462574-0.23330686 28.76037359c-0.51831242 18.11044543-1.13471977 58.67535106-1.67954431 87.93680418-1.2169074 65.38822587-8.112716 177.53989659-1.29246701 223.25743734 4.23796619 36.50854763 18.41666069 43.23070169 33.91565996 43.19358469 17.95137258-0.04241942 29.69094985-2.90175414 36.05651557-44.91024599 6.83350507-45.08787735 9.41578787-140.60450343 12.61845484-163.17164026 3.19869015-22.58171849 8.75961231-93.61570538 8.89349863-120.9629817 0-12.86766899 12.06700225-25.56433466 32.23611565-25.56433466 21.12752739 0 32.55956381 13.3303059 32.5595638 24.91876397-0.65617556 27.07287565 2.75593734 111.57370597 2.5425146 123.15951281-1.2169074 65.38690027 3.05552458 115.26949883 9.87709917 160.99897006 4.23796619 36.50324519 16.07431278 45.56907277 31.56800962 45.53195577 17.95667501-0.04241942 31.14779215-1.45153987 37.5173347-43.46003173 6.82820263-45.08655175 3.68253678-158.14626339 4.85835036-221.33398132 0.57531353-30.8429025 2.07059843-85.80125099 0.87357513-113.28108804-0.296936-6.88122692-0.59652323-16.97572567-1.00215903-22.84816553 0.15774725-2.18725186 0.18293379-47.6767882 21.14873711-48.62592294 20.9618265-0.94913474 21.74923717 52.03405904 21.74923718 52.03405904s-1.21027937 12.1876325-1.64507853 27.40692865c-0.42817111 15.21797054-0.95046036 49.30861066-1.40779484 73.89199599-1.02734558 54.95304607-6.81494657 149.18648439-1.08832351 187.6105344 3.56190652 30.67322477 15.47911516 36.32296261 28.49790338 36.28982244 15.09071225-0.03446578 24.95322975-2.44176845 30.30338037-37.73871109 5.73987914-37.88187667 7.91122371-118.14606642 10.59955509-137.11417973 2.68700577-18.96811328 7.36242234-78.66550749 7.47377334-101.63297765 0-10.83153634 10.14884865-21.4788133 27.08745732-21.4788133 17.74988028 0 27.36450923 11.1907759 27.36450922 20.9273607-0.55675502 22.7513962 2.31185893 93.75489413 2.13157636 103.48882774-1.02336875 54.94906925 2.56770113 96.86079178 8.29962662 135.2861674 3.56190652 30.68250402 13.50528605 38.29546611 26.5280511 38.26100032 15.09071225-0.03446578 26.17411396-1.21955861 31.52293897-36.52047808 5.73987914-37.88187667 3.09529279-132.8894696 4.08684696-185.97606075 0.4798698-25.91694617 1.7338942-72.09712386 0.73173518-95.19582914-0.24921414-5.79290341-0.50107952-43.13923478-0.8457374-48.07579597 1.05916014-14.17206646-11.87478921-58.27369209 4.67276536-66.4275019 11.76874064-5.16854243 28.65830185 43.53161452 38.29944293 55.68875806 18.21516839 22.96084213 29.62997191 22.33250433 39.00731718 17.72601934C961.50942135 531.33795769 968.85461079 523.99011703 962.3299722 496.77275021zM266.66987732 335.89043358c-8.62970281 12.52433674-17.25410319 26.19134686-17.25410318 26.19134686s-16.41499382-19.4135173-23.12521743-28.51911309c-6.71022359-9.10559579-13.7001503-21.96531115-10.39806281-36.01277053 4.60648499-17.02344753 16.74772124-23.24584769 33.60414228-23.24584769 16.85509542 0 20.52039931 7.28288591 24.44419659 11.4665022 3.92247167 4.18229068 6.32049508 11.45722294 6.32049507 18.90978657C280.26000224 312.13290151 275.29692892 323.36344563 266.66987732 335.89043358zM523.88274285 280.53440292c-2.71749474 5.85785818 13.9202011 99.22169819 13.18448912 108.68653352-0.74631684 9.46218413-4.02454342 23.31080243-10.8050242 31.98292468-3.23448155 4.14252247-10.00568307 11.73162363-14.60951686 11.73162363-4.60383376 0-13.87513046-6.71420042-17.41450165-11.49964237-6.77915517-9.16657372-10.53592595-20.48063109-11.01181892-30.10188809-0.47721859-9.61860577 11.46119977-104.28154082 8.97436067-109.76822897-3.80449263-8.40169837-25.0553015-15.0615489-22.6758366-25.17725737 5.48006012-20.26323151 19.9305041-27.66277085 39.98959211-27.66277083 20.06306482 0 33.0579921 10.46169194 36.61194499 26.74545067C547.59918109 264.14724684 527.14903897 273.49542875 523.88274285 280.53440292zM788.13590817 335.89043358c-8.62705159 12.52433674-17.2567544 26.19134686-17.2567544 26.19134686s-16.41366822-19.4135173-23.12654305-28.51911309c-6.70757238-9.10559579-13.70147591-21.96531115-10.39276036-36.01277053 4.60383376-17.02344753 16.74374442-23.24584769 33.60016545-23.24584769s20.52172492 7.28288591 24.44684778 11.4665022c3.92114607 4.18229068 6.31651826 11.45722294 6.31651828 18.90978657C801.72338187 312.13290151 796.76030854 323.36344563 788.13590817 335.89043358z" fill="#d81e06" p-id="13208"></path></svg>