<?xml version="1.0" standalone="no"?><!DOCTYPE svg PUBLIC "-//W3C//DTD SVG 1.1//EN" "http://www.w3.org/Graphics/SVG/1.1/DTD/svg11.dtd"><svg t="1700101347954" class="icon" viewBox="0 0 1024 1024" version="1.1" xmlns="http://www.w3.org/2000/svg" p-id="10051" xmlns:xlink="http://www.w3.org/1999/xlink" width="200" height="200"><path d="M 501.76 20.48 C 225.28 20.48 0 245.76 0 522.24 S 225.28 1024 501.76 1024 S 1003.52 798.72 1003.52 522.24 S 778.24 20.48 501.76 20.48 Z m 303.104 342.016 c -8.192 81.92 -53.248 61.44 -28.672 112.64 c -45.056 6.144 -43.008 10.24 -90.112 0 c 0 0 2.048 -2.048 2.048 -4.096 c 24.576 -47.104 -22.528 -28.672 -30.72 -112.64 c -10.24 -120.832 161.792 -120.832 147.456 4.096 Z m -55.296 155.648 c -2.048 8.192 -6.144 16.384 -10.24 22.528 l -20.48 -24.576 c 0 -2.048 -2.048 -2.048 -2.048 -4.096 l 32.768 6.144 Z M 493.568 206.848 c 118.784 0 104.448 135.168 69.632 192.512 c -20.48 32.768 -36.864 22.528 -14.336 71.68 c -61.44 8.192 -51.2 10.24 -114.688 0 c 0 0 2.048 -2.048 0 -2.048 c 24.576 -38.912 4.096 -40.96 -12.288 -67.584 c -43.008 -75.776 -38.912 -194.56 71.68 -194.56 Z m -161.792 159.744 c -4.096 22.528 -12.288 45.056 -22.528 59.392 s -22.528 28.672 -6.144 47.104 c -28.672 14.336 -57.344 10.24 -88.064 2.048 c 28.672 -49.152 -24.576 -32.768 -30.72 -118.784 c -6.144 -116.736 165.888 -116.736 147.456 10.24 Z m -61.44 145.408 l -10.24 16.384 c -4.096 6.144 -6.144 6.144 -10.24 10.24 l -12.288 -24.576 l 32.768 -2.048 Z m -49.152 77.824 c -2.048 12.288 -10.24 34.816 -14.336 55.296 c -4.096 20.48 -4.096 38.912 -6.144 59.392 c -51.2 -6.144 -118.784 -8.192 -143.36 -43.008 v -40.96 c 20.48 -47.104 6.144 -53.248 45.056 -92.16 c 20.48 -20.48 51.2 -40.96 90.112 -45.056 c 8.192 12.288 30.72 90.112 28.672 106.496 Z m 512 147.456 c -69.632 45.056 -313.344 36.864 -405.504 20.48 c -81.92 -14.336 -94.208 -30.72 -90.112 -83.968 c 8.192 -110.592 71.68 -174.08 174.08 -192.512 c 18.432 24.576 34.816 139.264 53.248 174.08 c 2.048 -22.528 8.192 -47.104 14.336 -69.632 c 12.288 -47.104 -6.144 -28.672 -6.144 -63.488 h 40.96 c 2.048 6.144 4.096 6.144 0 18.432 c 0 2.048 -8.192 14.336 -8.192 14.336 c -6.144 12.288 14.336 83.968 20.48 96.256 l 47.104 -172.032 c 102.4 20.48 165.888 75.776 182.272 188.416 c 4.096 34.816 2.048 53.248 -22.528 69.632 Z m 157.696 -47.104 c -30.72 8.192 -73.728 14.336 -106.496 14.336 c -4.096 -57.344 -20.48 -118.784 -20.48 -118.784 c 0 -8.192 10.24 -43.008 14.336 -53.248 l 18.432 -49.152 c 71.68 12.288 118.784 53.248 133.12 122.88 c 10.24 51.2 6.144 69.632 -38.912 83.968 Z" fill="#2b5deb" p-id="10052"></path></svg>