<?xml version="1.0" standalone="no"?><!DOCTYPE svg PUBLIC "-//W3C//DTD SVG 1.1//EN" "http://www.w3.org/Graphics/SVG/1.1/DTD/svg11.dtd"><svg t="1700463179409" class="icon" viewBox="0 0 1024 1024" version="1.1" xmlns="http://www.w3.org/2000/svg" p-id="3563" xmlns:xlink="http://www.w3.org/1999/xlink" width="200" height="200"><path d="M334.933333 486.4h89.6V554.666667h-89.6z" fill="#297AFF" p-id="3564"></path><path d="M810.666667 128H213.333333c-46.933333 0-85.333333 38.4-85.333333 85.333333v597.333334c0 46.933333 38.4 85.333333 85.333333 85.333333h597.333334c46.933333 0 85.333333-38.4 85.333333-85.333333V213.333333c0-46.933333-38.4-85.333333-85.333333-85.333333z m-53.333334 635.733333c-12.8 19.2-34.133333 27.733333-61.866666 27.733334-36.266667 0-66.133333-25.6-93.866667-76.8-27.733333 29.866667-59.733333 57.6-93.866667 81.066666-14.933333-17.066667-32-36.266667-55.466666-53.333333 21.333333-12.8 38.4-25.6 53.333333-38.4-83.2 19.2-168.533333 36.266667-253.866667 55.466667l-12.8-72.533334c74.666667-12.8 162.133333-29.866667 266.666667-51.2l6.4 64c21.333333-17.066667 40.533333-38.4 59.733333-61.866666-19.2-66.133333-34.133333-149.333333-42.666666-247.466667H241.066667V320h285.866666c-2.133333-38.4-2.133333-68.266667-2.133333-85.333333h76.8c0 25.6 0 53.333333 2.133333 85.333333h96c-19.2-14.933333-42.666667-29.866667-70.4-44.8l42.666667-44.8c40.533333 19.2 70.4 38.4 91.733333 57.6L727.466667 320h44.8v70.4h-168.533334c4.266667 57.6 12.8 110.933333 23.466667 164.266667 21.333333-38.4 40.533333-83.2 55.466667-134.4l70.4 17.066666c-23.466667 78.933333-57.6 149.333333-102.4 211.2 17.066667 44.8 32 68.266667 49.066666 68.266667 12.8 0 19.2-36.266667 23.466667-106.666667 17.066667 19.2 38.4 32 61.866667 42.666667-4.266667 53.333333-14.933333 89.6-27.733334 110.933333z m-488.533333-149.333333V426.666667H490.666667v187.733333H268.8z" fill="#297AFF" p-id="3565"></path></svg>