<?xml version="1.0" standalone="no"?><!DOCTYPE svg PUBLIC "-//W3C//DTD SVG 1.1//EN" "http://www.w3.org/Graphics/SVG/1.1/DTD/svg11.dtd"><svg t="1700146767579" class="icon" viewBox="0 0 1024 1024" version="1.1" xmlns="http://www.w3.org/2000/svg" p-id="5873" xmlns:xlink="http://www.w3.org/1999/xlink" width="200" height="200"><path d="M312 482.5c0-57.7-46.9-104.6-104.6-104.6-57.7 0-104.6 46.9-104.6 104.6S149.8 587 207.5 587c57.6 0 104.5-46.9 104.5-104.5z" fill="#FFFFFF" p-id="5874"></path><path d="M207.5 350.1c-73 0-132.4 59.4-132.4 132.4s59.4 132.4 132.4 132.4 132.4-59.4 132.4-132.4-59.4-132.4-132.4-132.4zM102.9 482.5c0-57.7 46.9-104.6 104.6-104.6 57.7 0 104.6 46.9 104.6 104.6S265.1 587 207.5 587c-57.7 0-104.6-46.9-104.6-104.5z" fill="" p-id="5875"></path><path d="M512.7 377.9c-57.7 0-104.6 46.9-104.6 104.6S455 587 512.7 587c57.7 0 104.6-46.9 104.6-104.6s-47-104.5-104.6-104.5z" fill="#FFFFFF" p-id="5876"></path><path d="M512.7 350.1c-73 0-132.4 59.4-132.4 132.4s59.4 132.4 132.4 132.4 132.4-59.4 132.4-132.4-59.4-132.4-132.4-132.4z m0 236.9c-57.7 0-104.6-46.9-104.6-104.6S455 377.9 512.7 377.9c57.7 0 104.6 46.9 104.6 104.6S570.3 587 512.7 587z" fill="" p-id="5877"></path><path d="M817.9 482.5m-104.6 0a104.6 104.6 0 1 0 209.2 0 104.6 104.6 0 1 0-209.2 0Z" fill="#FFFFFF" p-id="5878"></path><path d="M817.9 350.1c-73 0-132.4 59.4-132.4 132.4s59.4 132.4 132.4 132.4 132.4-59.4 132.4-132.4-59.4-132.4-132.4-132.4z m0 236.9c-57.7 0-104.6-46.9-104.6-104.6s46.9-104.6 104.6-104.6c57.7 0 104.6 46.9 104.6 104.6S875.6 587 817.9 587z" fill="" p-id="5879"></path></svg>