<?xml version="1.0" standalone="no"?><!DOCTYPE svg PUBLIC "-//W3C//DTD SVG 1.1//EN" "http://www.w3.org/Graphics/SVG/1.1/DTD/svg11.dtd"><svg t="1700447936484" class="icon" viewBox="0 0 1024 1024" version="1.1" xmlns="http://www.w3.org/2000/svg" p-id="2441" xmlns:xlink="http://www.w3.org/1999/xlink" width="200" height="200"><path d="M698.6 961.5c-16-16-16-41.9 0-57.9l164.1-164.1c16-16 41.9-16 57.9 0s16 41.9 0 57.9L756.5 961.5c-16 16-41.9 16-57.9 0z" fill="#242424" p-id="2442"></path><path d="M698.6 739.5c16-16 41.9-16 57.9 0l164.1 164.1c16 16 16 41.9 0 57.9s-41.9 16-57.9 0L698.6 797.4c-16-16-16-41.9 0-57.9zM469.8 62.1c-159.2 0-288.2 129-288.2 288.2s129 288.2 288.2 288.2S758 509.5 758 350.3 629 62.1 469.8 62.1z m0 494.5c-113.9 0-206.3-92.4-206.3-206.3S355.9 144 469.8 144s206.3 92.4 206.3 206.3-92.4 206.3-206.3 206.3z" fill="#242424" p-id="2443"></path><path d="M97.6 933.3m-40.9 0a40.9 40.9 0 1 0 81.8 0 40.9 40.9 0 1 0-81.8 0Z" fill="#242424" p-id="2444"></path><path d="M686.6 667.6m-40.9 0a40.9 40.9 0 1 0 81.8 0 40.9 40.9 0 1 0-81.8 0Z" fill="#242424" p-id="2445"></path><path d="M713.7 637.1c-68.6-50.3-153.1-80-244.7-80-215.5 0-392.6 164.6-412.4 375h81.9C158 766.8 298.5 638.5 469 638.5c72.9 0 140.3 23.5 195.2 63.3l47.3-53.6c0.1-4.1 0.9-7.9 2.2-11.1z" fill="#242424" p-id="2446"></path></svg>