<?xml version="1.0" standalone="no"?><!DOCTYPE svg PUBLIC "-//W3C//DTD SVG 1.1//EN" "http://www.w3.org/Graphics/SVG/1.1/DTD/svg11.dtd"><svg t="1700393823409" class="icon" viewBox="0 0 1024 1024" version="1.1" xmlns="http://www.w3.org/2000/svg" p-id="1503" xmlns:xlink="http://www.w3.org/1999/xlink" width="200" height="200"><path d="M655.4624 533.31968c110.68416 34.42688 199.30112 95.90784 265.66656 184.43264 66.37568 88.5248 100.4544 190.6688 102.05184 306.24768H0c1.59744-115.67104 35.584-217.72288 102.05184-306.24768 66.4576-88.5248 154.99264-150.00576 265.66656-184.43264L511.5904 748.544l143.872-215.22432zM767.3856 256.6144c-1.59744 72.06912-26.69568 132.39296-75.008 180.7872-48.40448 48.39424-108.63616 73.40032-180.79744 74.99776-72.05888-1.59744-132.38272-26.68544-180.7872-74.99776-48.40448-48.39424-73.40032-108.63616-75.008-180.7872 1.59744-72.06912 26.69568-132.38272 75.008-180.7872C379.19744 27.51488 439.52128 2.42688 511.5904 0.8192c72.06912 1.59744 132.39296 26.68544 180.79744 74.99776 48.39424 48.41472 73.40032 108.63616 74.99776 180.79744z m0 0" fill="#2C2C2C" p-id="1504"></path></svg>