<?xml version="1.0" standalone="no"?><!DOCTYPE svg PUBLIC "-//W3C//DTD SVG 1.1//EN" "http://www.w3.org/Graphics/SVG/1.1/DTD/svg11.dtd"><svg t="1701047917697" class="icon" viewBox="0 0 1024 1024" version="1.1" xmlns="http://www.w3.org/2000/svg" p-id="3538" xmlns:xlink="http://www.w3.org/1999/xlink" width="200" height="200"><path d="M409.6 544.494933a168.618667 168.618667 0 0 1-168.209067-168.482133V259.413333a168.3456 168.3456 0 0 1 336.827734 0v116.053334A168.618667 168.618667 0 0 1 409.6 544.494933z m0-398.267733A113.8688 113.8688 0 0 0 296.004267 259.413333v116.053334A113.8688 113.8688 0 0 0 409.6 489.8816a113.8688 113.8688 0 0 0 113.732267-113.732267V259.413333A113.8688 113.8688 0 0 0 409.6 146.2272z" fill="#0073FF" p-id="3539"></path><path d="M354.986667 296.277333a276.48 276.48 0 0 1-95.573334-17.066666l18.705067-51.336534a222.276267 222.276267 0 0 0 76.1856 13.653334 221.184 221.184 0 0 0 159.744-68.266667l39.185067 38.0928A275.387733 275.387733 0 0 1 354.986667 296.277333z" fill="#0073FF" p-id="3540"></path><path d="M712.2944 932.386133H107.178667a37.137067 37.137067 0 0 1-37.000534-37.000533 327.68 327.68 0 0 1 326.997334-326.997333h25.258666a327.68 327.68 0 0 1 326.997334 326.997333 37.137067 37.137067 0 0 1-37.137067 37.000533z m-587.093333-54.613333h569.070933a273.066667 273.066667 0 0 0-271.837867-254.7712h-25.258666A273.066667 273.066667 0 0 0 125.3376 877.7728z" fill="#0073FF" p-id="3541"></path><path d="M409.6 757.213867a27.306667 27.306667 0 0 1-22.801067-12.288l-83.012266-125.7472a27.306667 27.306667 0 1 1 45.602133-30.037334L409.6 680.3456l60.2112-91.204267a27.306667 27.306667 0 1 1 45.602133 30.037334l-83.012266 125.7472a27.306667 27.306667 0 0 1-22.801067 12.288z" fill="#0073FF" p-id="3542"></path><path d="M626.824533 546.133333a162.2016 162.2016 0 0 1-47.104-6.9632 27.306667 27.306667 0 1 1 15.837867-52.292266A108.1344 108.1344 0 0 0 734.8224 382.293333v-110.728533a108.1344 108.1344 0 0 0-140.219733-103.2192 27.306667 27.306667 0 0 1-16.247467-52.155733 162.747733 162.747733 0 0 1 211.080533 155.374933V382.293333a162.884267 162.884267 0 0 1-162.6112 163.84z" fill="#0073FF" p-id="3543"></path><path d="M626.2784 301.4656a27.306667 27.306667 0 0 1-5.870933-54.613333 211.626667 211.626667 0 0 0 105.949866-59.255467 27.306667 27.306667 0 0 1 39.185067 38.0928A266.103467 266.103467 0 0 1 632.285867 300.373333a27.306667 27.306667 0 0 1-6.007467 1.092267z" fill="#0073FF" p-id="3544"></path><path d="M917.0944 917.9136H805.546667a27.306667 27.306667 0 0 1 0-54.613333h92.842666a260.642133 260.642133 0 0 0-259.413333-242.346667 27.306667 27.306667 0 0 1 0-54.613333 315.255467 315.255467 0 0 1 314.845867 314.9824 36.727467 36.727467 0 0 1-36.727467 36.590933z" fill="#0073FF" p-id="3545"></path><path d="M686.08 659.8656a27.306667 27.306667 0 0 1-22.801067-42.325333l20.48-30.446934a27.306667 27.306667 0 0 1 45.602134 30.173867l-20.343467 30.72a27.306667 27.306667 0 0 1-22.9376 11.8784z" fill="#0073FF" p-id="3546"></path></svg>